Coordinates
version=1
nRows=29
nColumns=22
inDegrees=yes

Units are S.I. units (second, meters, Newtons, ...)
If the header above contains a line with 'inDegrees', this indicates whether rotational values are in degrees (yes) or radians (no).

endheader
time	pelvis_tilt	pelvis_list	pelvis_rotation	pelvis_tx	pelvis_ty	pelvis_tz	hip_flexion_r	hip_adduction_r	hip_rotation_r	knee_angle_r	ankle_angle_r	subtalar_angle_r	hip_flexion_l	hip_adduction_l	hip_rotation_l	knee_angle_l	ankle_angle_l	subtalar_angle_l	lumbar_extension	lumbar_bending	lumbar_rotation
      4.34000000	     -0.43385241	      6.36453921	   -108.35552940	      0.22292801	      0.86962341	      0.23211949	     23.15713275	     -1.65430163	      7.78496430	    -66.22775321	      1.82914137	      4.81188076	     26.06575561	     -9.02335654	    -12.23603324	    -30.17949169	      9.53447309	      4.83619282	     -0.85619814	      0.75184616	     15.50977338
      4.35000000	     -0.60641169	      6.50082982	   -108.40086090	      0.22366835	      0.87055534	      0.23614772	     24.51706913	     -1.12490435	      7.52087926	    -66.36417397	      2.60267791	      4.75037315	     25.79450619	     -9.08244955	    -12.22022525	    -30.03814384	      9.72698824	      4.73991376	     -0.96420930	      0.91464242	     15.13208925
      4.36000000	     -0.80409429	      6.66032075	   -108.40295594	      0.22431629	      0.87151388	      0.24005402	     25.76683934	     -0.51037661	      7.28299558	    -66.13306333	      3.35800775	      4.98765643	     25.54634359	     -9.16648983	    -12.15877349	    -29.87273584	      9.88897860	      4.65120027	     -1.04607249	      1.10525307	     14.71952358
      4.37000000	     -1.01020764	      6.82872392	   -108.37057733	      0.22484700	      0.87250988	      0.24386811	     26.89273266	      0.15495282	      7.08412122	    -65.54387202	      4.09285459	      5.58026763	     25.28977040	     -9.25711653	    -12.06981744	    -29.65489493	     10.01800286	      4.57626645	     -1.10709708	      1.29711248	     14.28309256
      4.38000000	     -1.20197991	      6.98293675	   -108.30961018	      0.22528523	      0.87354515	      0.24762771	     27.87411009	      0.81157676	      6.92123974	    -64.61138549	      4.84110717	      6.37281916	     25.00403987	     -9.33185529	    -12.00962729	    -29.38851834	     10.12389389	      4.52751494	     -1.16448421	      1.46244128	     13.81969901
      4.39000000	     -1.35403963	      7.13455090	   -108.23716286	      0.22562721	      0.87459349	      0.25134598	     28.73253415	      1.41678586	      6.80313451	    -63.35351308	      5.58013818	      7.35976350	     24.68783257	     -9.36832436	    -11.98325078	    -29.03949306	     10.17751541	      4.49828975	     -1.19173771	      1.57639982	     13.38427329
      4.40000000	     -1.48988374	      7.27319900	   -108.13506291	      0.22590788	      0.87563802	      0.25501345	     29.44468071	      1.97497779	      6.72889361	    -61.78971344	      6.29975090	      8.27343504	     24.35234334	     -9.38203398	    -11.95897584	    -28.65674165	     10.24075111	      4.48372275	     -1.21741129	      1.66722078	     12.90087719
      4.41000000	     -1.59170234	      7.40106692	   -108.02141408	      0.22609722	      0.87666117	      0.25867661	     30.02021997	      2.44103339	      6.68399867	    -59.95007776	      7.00589743	      9.14326124	     23.99045540	     -9.36393708	    -11.97244136	    -28.22594912	     10.27766779	      4.48229224	     -1.22346357	      1.71095879	     12.43331553
      4.42000000	     -1.66047046	      7.52681762	   -107.90285453	      0.22624057	      0.87764243	      0.26231878	     30.46958730	      2.81403315	      6.69905670	    -57.86018003	      7.65349665	      9.87652535	     23.61142245	     -9.30940986	    -11.99362975	    -27.74396879	     10.29678008	      4.49040659	     -1.20897943	      1.72282305	     11.99739689
      4.43000000	     -1.71037794	      7.64797367	   -107.76815372	      0.22632874	      0.87856671	      0.26597262	     30.78550261	      3.08893472	      6.74504750	    -55.55705322	      8.25227787	     10.36942365	     23.22442016	     -9.23459201	    -12.02551536	    -27.24218868	     10.31211465	      4.50208215	     -1.17600095	      1.71432064	     11.57886551
      4.44000000	     -1.74573575	      7.76995336	   -107.60969140	      0.22638943	      0.87940442	      0.26965483	     30.97328002	      3.25442219	      6.79952905	    -53.07664646	      8.82780884	     10.56695870	     22.85210052	     -9.14679052	    -12.07079453	    -26.75254718	     10.31729030	      4.50878265	     -1.12040894	      1.69664766	     11.16426743
      4.45000000	     -1.77961319	      7.86327480	   -107.42911290	      0.22643357	      0.88022687	      0.27337145	     30.99699631	      3.33356344	      6.91129488	    -50.44604566	      9.29301354	     10.59897118	     22.44082527	     -9.03338439	    -12.05943135	    -26.23861259	     10.35383611	      4.52091305	     -1.07923082	      1.67446024	     10.77198526
      4.46000000	     -1.80682282	      7.94018710	   -107.21659442	      0.22651046	      0.88098421	      0.27716626	     30.88566955	      3.30006799	      7.01455049	    -47.72247298	      9.71942182	     10.35869249	     22.02274512	     -8.89939768	    -12.03459527	    -25.73410339	     10.38676972	      4.52991788	     -1.03189320	      1.65575977	     10.38470720
      4.47000000	     -1.81635080	      7.98572941	   -106.98808248	      0.22658835	      0.88169680	      0.28102484	     30.64238950	      3.16923919	      7.14204569	    -44.95226246	     10.05045847	      9.63064881	     21.57367902	     -8.72904111	    -11.97451085	    -25.22632913	     10.47024669	      4.54312742	     -0.99104228	      1.61733590	     10.03539154
      4.48000000	     -1.80833453	      8.04739743	   -106.71303826	      0.22671998	      0.88226999	      0.28494481	     30.33646513	      2.93898749	      7.22093001	    -42.19328213	     10.37868413	      8.58716428	     21.17574664	     -8.53768562	    -11.89236345	    -24.75545507	     10.51771637	      4.54366861	     -0.89955008	      1.57791813	      9.67878949
      4.49000000	     -1.78654920	      8.09236453	   -106.38624908	      0.22692518	      0.88276014	      0.28893733	     29.94323769	      2.61672429	      7.25323688	    -39.47704941	     10.65363806	      7.41494716	     20.78886827	     -8.30998680	    -11.73866095	    -24.31487087	     10.58170532	      4.53761322	     -0.79482060	      1.53097991	      9.31167313
      4.50000000	     -1.74735225	      8.13070301	   -106.01519959	      0.22717458	      0.88315725	      0.29299267	     29.48593831	      2.22495919	      7.23756862	    -36.83511286	     10.87730447	      6.11983198	     20.42062714	     -8.05177357	    -11.53532167	    -23.90174491	     10.66011755	      4.53301703	     -0.66529625	      1.47271129	      8.94734366
      4.51000000	     -1.69464304	      8.16533526	   -105.60336091	      0.22743581	      0.88346312	      0.29708607	     28.97597425	      1.79120919	      7.18266684	    -34.29061250	     11.03792987	      4.82121253	     20.07728135	     -7.77521553	    -11.28622982	    -23.52491018	     10.73772579	      4.53579168	     -0.50870484	      1.40348102	      8.59397329
      4.52000000	     -1.63810844	      8.19554094	   -105.15556610	      0.22767531	      0.88369127	      0.30120182	     28.40816057	      1.34792948	      7.11151706	    -31.84707590	     11.11367897	      3.64983381	     19.75259731	     -7.49385329	    -10.99978496	    -23.18079668	     10.83304744	      4.54965108	     -0.33222136	      1.32905044	      8.26512195
      4.53000000	     -1.58826251	      8.20839276	   -104.66784732	      0.22787875	      0.88385607	      0.30530899	     27.77013734	      0.91385705	      7.04173006	    -29.51527620	     11.07536350	      2.78396647	     19.44663890	     -7.22019837	    -10.67314051	    -22.89996480	     10.96451813	      4.57541193	     -0.15879419	      1.25532877	      7.95063196
      4.54000000	     -1.53357048	      8.24952259	   -104.18783211	      0.22795397	      0.88392212	      0.30937659	     27.11906963	      0.52616971	      7.03702677	    -27.29969934	     10.83154635	      2.06183217	     19.17512719	     -6.97045172	    -10.36821504	    -22.62788474	     11.05388036	      4.62266050	      0.06647830	      1.18172127	      7.71292651
      4.55000000	     -1.50559157	      8.27915713	   -103.67572308	      0.22797621	      0.88392061	      0.31338140	     26.39812203	      0.18409008	      7.07722706	    -25.19451416	     10.40325294	      1.84793378	     18.93318727	     -6.75541520	    -10.02919872	    -22.43540979	     11.20391012	      4.66521943	      0.27783774	      1.13278770	      7.50484215
      4.56000000	     -1.48084294	      8.32532581	   -103.18539516	      0.22784410	      0.88382577	      0.31731971	     25.65624335	     -0.10075212	      7.21395177	    -23.21661581	      9.72768008	      1.82769765	     18.71733446	     -6.57590817	     -9.73530243	    -22.26766812	     11.34960119	      4.71775081	      0.51895927	      1.08872584	      7.38098990
      4.57000000	     -1.46290745	      8.32552701	   -102.70771095	      0.22760604	      0.88370491	      0.32117620	     24.83028839	     -0.35282175	      7.44713409	    -21.37363485	      8.90221120	      2.06016978	     18.47578809	     -6.41105073	     -9.43693373	    -22.15093567	     11.56557996	      4.81108814	      0.70407319	      1.04070337	      7.34016105
      4.58000000	     -1.45384912	      8.34598430	   -102.24684712	      0.22725315	      0.88346498	      0.32494604	     24.00756092	     -0.56363932	      7.72029362	    -19.68954393	      7.92773352	      2.43248139	     18.29138476	     -6.28676895	     -9.17219436	    -22.10842667	     11.79587854	      4.88158106	      0.91278428	      1.01225356	      7.36796533
      4.59000000	     -1.43100258	      8.37579061	   -101.82266748	      0.22676940	      0.88313655	      0.32868979	     23.19299455	     -0.76220809	      7.99730993	    -18.17736079	      6.94624392	      2.84123821	     18.11654320	     -6.17370169	     -8.96254012	    -22.07301165	     12.02483902	      4.95172506	      1.14775844	      0.97918950	      7.46854455
      4.60000000	     -1.37504334	      8.35186906	   -101.42576691	      0.22619746	      0.88277868	      0.33237271	     22.34941340	     -0.99210089	      8.26102968	    -16.87140608	      6.15066970	      3.34544012	     17.90909315	     -6.02733821	     -8.73014712	    -22.08289583	     12.31533989	      5.05536580	      1.32789394	      0.90130965	      7.64591700
      4.61000000	     -1.31215713	      8.34852253	   -101.05740741	      0.22550670	      0.88232881	      0.33603648	     21.54320403	     -1.21438543	      8.42114998	    -15.73579471	      5.58606539	      3.66375321	     17.73850565	     -5.90182868	     -8.54421485	    -22.13005273	     12.59395995	      5.13333800	      1.54655185	      0.82809635	      7.87183402
      4.62000000	     -1.23404159	      8.34679345	   -100.71305874	      0.22472357	      0.88182731	      0.33968008	     20.75839202	     -1.44511200	      8.46097235	    -14.74597250	      5.30881738	      3.85559040	     17.57873902	     -5.77376833	     -8.35802243	    -22.19637887	     12.86545261	      5.20061181	      1.78201516	      0.74534248	      8.14046660
